<mxfile host="drawio-plugin" modified="2023-01-29T22:51:07.767Z" agent="5.0 (Windows NT 6.2; Win64; x64) AppleWebKit/537.36 (KHTML, like Gecko) Chrome/97.0.4692.45 Safari/537.36" etag="_sZ5io7yNpAlld283uO4" version="20.5.3" type="embed"><diagram id="23iRSUPoRavnBvh4doch" name="Page-1"><mxGraphModel dx="985" dy="713" grid="1" gridSize="10" guides="1" tooltips="1" connect="1" arrows="1" fold="1" page="1" pageScale="1" pageWidth="827" pageHeight="1169" math="0" shadow="0"><root><mxCell id="0"/><mxCell id="1" parent="0"/><mxCell id="2" value="«Annotation»&lt;br&gt;&lt;b&gt;Report Adapter&lt;/b&gt;" style="html=1;dropTarget=0;labelPosition=center;verticalLabelPosition=top;align=center;verticalAlign=bottom;shadow=1;" parent="1" vertex="1"><mxGeometry x="40" y="210" width="330" height="190" as="geometry"/></mxCell><mxCell id="3" value="" style="shape=module;jettyWidth=8;jettyHeight=4;shadow=1;" parent="2" vertex="1"><mxGeometry x="1" width="20" height="20" relative="1" as="geometry"><mxPoint x="-27" y="7" as="offset"/></mxGeometry></mxCell><mxCell id="4" value="&lt;p style=&quot;margin:0px;margin-top:4px;text-align:center;&quot;&gt;&lt;b&gt;ReportAdapter&lt;/b&gt;&lt;/p&gt;&lt;hr size=&quot;1&quot;&gt;&lt;p style=&quot;margin:0px;margin-left:4px;&quot;&gt;+ commandAPI(): List&amp;lt;String&amp;gt;&lt;/p&gt;&lt;p style=&quot;margin:0px;margin-left:4px;&quot;&gt;+ postData(): JSON&lt;/p&gt;" style="verticalAlign=top;align=left;overflow=fill;fontSize=12;fontFamily=Helvetica;html=1;shadow=1;" parent="1" vertex="1"><mxGeometry x="70" y="330" width="190" height="70" as="geometry"/></mxCell><mxCell id="7" value="«Annotation»&lt;br&gt;&lt;b&gt;Report Service&lt;/b&gt;" style="html=1;dropTarget=0;labelPosition=center;verticalLabelPosition=top;align=center;verticalAlign=bottom;shadow=1;" parent="1" vertex="1"><mxGeometry x="40" y="470" width="760" height="320" as="geometry"/></mxCell><mxCell id="8" value="" style="shape=module;jettyWidth=8;jettyHeight=4;shadow=1;" parent="7" vertex="1"><mxGeometry x="1" width="20" height="20" relative="1" as="geometry"><mxPoint x="-27" y="7" as="offset"/></mxGeometry></mxCell><mxCell id="9" value="&lt;p style=&quot;margin:0px;margin-top:4px;text-align:center;&quot;&gt;&lt;i&gt;&amp;lt;&amp;lt;Interface&amp;gt;&amp;gt;&lt;/i&gt;&lt;br&gt;&lt;b&gt;iServer&lt;/b&gt;&lt;/p&gt;&lt;hr size=&quot;1&quot;&gt;&lt;p style=&quot;margin:0px;margin-left:4px;&quot;&gt;&lt;span style=&quot;background-color: initial;&quot;&gt;+ commandAPI(): List&amp;lt;String&amp;gt;&lt;/span&gt;&lt;br&gt;&lt;/p&gt;&lt;p style=&quot;margin: 0px 0px 0px 4px;&quot;&gt;+ postData(): JSON&lt;/p&gt;&lt;p style=&quot;margin: 0px 0px 0px 4px;&quot;&gt;&lt;br&gt;&lt;/p&gt;" style="verticalAlign=top;align=left;overflow=fill;fontSize=12;fontFamily=Helvetica;html=1;shadow=1;" parent="1" vertex="1"><mxGeometry x="70" y="470" width="190" height="80" as="geometry"/></mxCell><mxCell id="10" value="&lt;p style=&quot;margin:0px;margin-top:4px;text-align:center;&quot;&gt;&lt;i&gt;&amp;lt;&amp;lt;Interface&amp;gt;&amp;gt;&lt;/i&gt;&lt;br&gt;&lt;b&gt;iR&lt;/b&gt;&lt;b style=&quot;background-color: initial;&quot;&gt;epository&lt;/b&gt;&lt;/p&gt;&lt;hr size=&quot;1&quot;&gt;&lt;p style=&quot;margin:0px;margin-left:4px;&quot;&gt;+ getAllProducts(): List&amp;lt;String&amp;gt;&lt;br&gt;+ getAllOrders(): List&amp;lt;String&amp;gt;&lt;/p&gt;&amp;nbsp;+ getAllProviders(): List&amp;lt;String&amp;gt;&lt;br&gt;&amp;nbsp;+ getAllTypes(): List&amp;lt;String&amp;gt;&lt;br&gt;&amp;nbsp;+ getAllCategories(): List&amp;lt;String&amp;gt;&lt;br&gt;&amp;nbsp;+ getAllSubcategories(): List&amp;lt;String&amp;gt;" style="verticalAlign=top;align=left;overflow=fill;fontSize=12;fontFamily=Helvetica;html=1;shadow=1;" parent="1" vertex="1"><mxGeometry x="560" y="470" width="200" height="140" as="geometry"/></mxCell><mxCell id="11" value="«Annotation»&lt;br&gt;&lt;b&gt;Domain&amp;nbsp;Repo&lt;/b&gt;" style="html=1;dropTarget=0;labelPosition=center;verticalLabelPosition=top;align=center;verticalAlign=bottom;shadow=1;" parent="1" vertex="1"><mxGeometry x="460" y="210" width="340" height="190" as="geometry"/></mxCell><mxCell id="12" value="" style="shape=module;jettyWidth=8;jettyHeight=4;shadow=1;" parent="11" vertex="1"><mxGeometry x="1" width="20" height="20" relative="1" as="geometry"><mxPoint x="-27" y="7" as="offset"/></mxGeometry></mxCell><mxCell id="13" value="&lt;p style=&quot;margin:0px;margin-top:4px;text-align:center;&quot;&gt;&lt;b&gt;DomainRepo&lt;/b&gt;&lt;/p&gt;&lt;hr size=&quot;1&quot;&gt;&lt;p style=&quot;margin:0px;margin-left:4px;&quot;&gt;&lt;/p&gt;&lt;p style=&quot;margin: 0px 0px 0px 4px;&quot;&gt;+ getAllProducts(): List&amp;lt;String&amp;gt;&lt;br&gt;+ getAllOrders(): List&amp;lt;String&amp;gt;&lt;/p&gt;&lt;p style=&quot;margin:0px;margin-left:4px;&quot;&gt;+ getAllProviders(): List&amp;lt;String&amp;gt;&lt;br&gt;+ getAllTypes(): List&amp;lt;String&amp;gt;&lt;br&gt;+getAllCategories(): List&amp;lt;String&amp;gt;&lt;br&gt;+ getAllSubcategories(): List&amp;lt;String&amp;gt;&lt;br&gt;&lt;/p&gt;" style="verticalAlign=top;align=left;overflow=fill;fontSize=12;fontFamily=Helvetica;html=1;shadow=1;" parent="1" vertex="1"><mxGeometry x="560" y="250" width="200" height="150" as="geometry"/></mxCell><mxCell id="14" value="&lt;p style=&quot;margin:0px;margin-top:4px;text-align:center;&quot;&gt;&lt;b&gt;ReportService&lt;/b&gt;&lt;/p&gt;&lt;hr size=&quot;1&quot;&gt;&lt;p style=&quot;margin:0px;margin-left:4px;&quot;&gt;+ reportAdapter: iServer&lt;/p&gt;&lt;p style=&quot;margin:0px;margin-left:4px;&quot;&gt;+ domainRepo: iRepository&lt;br&gt;&lt;/p&gt;&lt;p style=&quot;margin:0px;margin-left:4px;&quot;&gt;+ filter: List&amp;lt;String&amp;gt;&lt;/p&gt;&lt;p style=&quot;margin:0px;margin-left:4px;&quot;&gt;+ outData: JSON&lt;/p&gt;&lt;hr size=&quot;1&quot;&gt;&lt;p style=&quot;margin:0px;margin-left:4px;&quot;&gt;+ parseAPI(List&amp;lt;String&amp;gt;):&lt;/p&gt;&lt;p style=&quot;margin:0px;margin-left:4px;&quot;&gt;+ applyFilter():&amp;nbsp;&lt;/p&gt;" style="verticalAlign=top;align=left;overflow=fill;fontSize=12;fontFamily=Helvetica;html=1;shadow=1;" parent="1" vertex="1"><mxGeometry x="310" y="610" width="190" height="140" as="geometry"/></mxCell><mxCell id="15" value="" style="endArrow=block;dashed=1;endFill=0;endSize=12;html=1;rounded=0;entryX=0.5;entryY=0;entryDx=0;entryDy=0;exitX=0.5;exitY=1;exitDx=0;exitDy=0;shadow=1;" parent="1" source="4" target="9" edge="1"><mxGeometry width="160" relative="1" as="geometry"><mxPoint x="540" y="430" as="sourcePoint"/><mxPoint x="540" y="430" as="targetPoint"/></mxGeometry></mxCell><mxCell id="16" value="1" style="endArrow=open;html=1;endSize=12;startArrow=diamondThin;startSize=14;startFill=1;edgeStyle=orthogonalEdgeStyle;align=left;verticalAlign=bottom;rounded=0;entryX=0.5;entryY=1;entryDx=0;entryDy=0;exitX=-0.004;exitY=0.281;exitDx=0;exitDy=0;exitPerimeter=0;shadow=1;" parent="1" source="14" target="9" edge="1"><mxGeometry x="-0.842" y="-9" relative="1" as="geometry"><mxPoint x="330" y="660" as="sourcePoint"/><mxPoint x="290" y="490" as="targetPoint"/><mxPoint as="offset"/></mxGeometry></mxCell><mxCell id="17" value="1" style="endArrow=open;html=1;endSize=12;startArrow=diamondThin;startSize=14;startFill=1;edgeStyle=orthogonalEdgeStyle;align=left;verticalAlign=bottom;rounded=0;exitX=1;exitY=0.384;exitDx=0;exitDy=0;exitPerimeter=0;entryX=0.5;entryY=1;entryDx=0;entryDy=0;shadow=1;" edge="1" parent="1" source="14" target="10"><mxGeometry x="-0.8129" y="-16" relative="1" as="geometry"><mxPoint x="319.24" y="659.3400000000001" as="sourcePoint"/><mxPoint x="175" y="560" as="targetPoint"/><mxPoint as="offset"/></mxGeometry></mxCell><mxCell id="18" value="" style="endArrow=block;dashed=1;endFill=0;endSize=12;html=1;rounded=0;entryX=0.5;entryY=0;entryDx=0;entryDy=0;exitX=0.5;exitY=1;exitDx=0;exitDy=0;shadow=1;" edge="1" parent="1" source="13" target="10"><mxGeometry width="160" relative="1" as="geometry"><mxPoint x="175" y="410" as="sourcePoint"/><mxPoint x="175" y="480" as="targetPoint"/><Array as="points"/></mxGeometry></mxCell><mxCell id="20" value="&lt;font style=&quot;font-size: 20px;&quot;&gt;UML диграмма оптового магазина&lt;/font&gt;" style="text;html=1;strokeColor=none;fillColor=none;align=center;verticalAlign=middle;whiteSpace=wrap;rounded=0;shadow=1;" vertex="1" parent="1"><mxGeometry x="90" y="120" width="340" height="30" as="geometry"/></mxCell></root></mxGraphModel></diagram></mxfile>